# xmcd
#
# Track frame offsets:
#	150
#	11095
#	20424
#	37626
#	54075
#	71032
#	93910
#	101176
#	119443
#	133946
#	150692
#	178014
#	194699
#	206459
#	216542
#	224969
#	248914
#	278673
#
# Disc length: 4615 seconds
#
# Revision: 1
# Processed by: cddbd v1.5.2PL0 Copyright (c) Steve Scherf et al.
# Submitted via: audiograbber 1.83.01
#
DISCID=13120512
DTITLE=Hudaki - Hudaki: Hudaki arent people
DYEAR=2009
DGENRE=Folklore
TTITLE0=Palinchak
TTITLE1=Brustury
TTITLE2=Na Berezhku - Am Flussufer
TTITLE3=Kukharyochka - Die Köchin
TTITLE4=Urvalasya struna - Die Saite ist gerissen
TTITLE5=Katerynka
TTITLE6=Vasko
TTITLE7=Cretino
TTITLE8=Vershe - Baumwipfel
TTITLE9=Olena
TTITLE10=Kuragov - Hochzeitsstrauss
TTITLE11=Cylya - Zilja
TTITLE12=Pipka - Die Pfeife
TTITLE13=Na Kameni - Auf dem Stein
TTITLE14=Zhovkovynka - Der Ring
TTITLE15=Seryozha
TTITLE16=Dwa Duby - Zwei Eichen
TTITLE17=Daten-CD
EXTD=
EXTT0=
EXTT1=
EXTT2=
EXTT3=
EXTT4=
EXTT5=
EXTT6=
EXTT7=
EXTT8=
EXTT9=
EXTT10=
EXTT11=
EXTT12=
EXTT13=
EXTT14=
EXTT15=
EXTT16=
EXTT17=
PLAYORDER=
